Coordinates
version=1
nRows=8
nColumns=40
inDegrees=yes

Units are S.I. units (second, meters, Newtons, ...)
If the header above contains a line with 'inDegrees', this indicates whether rotational values are in degrees (yes) or radians (no).

endheader
time	pelvis_tilt	pelvis_list	pelvis_rotation	pelvis_tx	pelvis_ty	pelvis_tz	hip_flexion_r	hip_adduction_r	hip_rotation_r	knee_angle_r	knee_angle_r_beta	ankle_angle_r	subtalar_angle_r	mtp_angle_r	hip_flexion_l	hip_adduction_l	hip_rotation_l	knee_angle_l	knee_angle_l_beta	ankle_angle_l	subtalar_angle_l	mtp_angle_l	lumbar_extension	lumbar_bending	lumbar_rotation	arm_flex_r	arm_add_r	arm_rot_r	elbow_flex_r	pro_sup_r	wrist_flex_r	wrist_dev_r	arm_flex_l	arm_add_l	arm_rot_l	elbow_flex_l	pro_sup_l	wrist_flex_l	wrist_dev_l
      1.16000000	      0.00508558	      1.43265453	      6.63125792	      0.74072267	      0.90397772	      0.22790928	     24.41081028	     -5.15511140	    -15.50920953	      9.93919799	      0.17347173	     -6.34071872	      0.32138104	      0.00000000	    -18.54070344	     -4.52315134	    -18.20678220	     18.66274712	      0.32572638	      2.67013398	     13.79402869	      0.00000000	     -1.41125976	      2.28753274	     -2.68976388	     39.52876404	    -14.84702127	     39.52876404	     75.71013358	     44.99091154	      0.00000000	      0.00000000	     39.52876404	    -14.84702127	     39.52876404	     75.71013358	     44.99091154	      0.00000000	      0.00000000
      1.16500000	      0.12541755	      0.80317708	      6.27446678	      0.74822768	      0.90429742	      0.22963724	     24.69962935	     -4.66409589	    -15.99425318	     11.48171594	      0.20039375	     -6.46224464	      1.20565789	      0.00000000	    -18.50183217	     -5.41498435	    -18.72745609	     19.84177125	      0.34630424	      1.75816487	     12.99557724	      0.00000000	     -1.41327525	      2.87041269	     -3.07984781	     39.54939877	    -14.84797222	     39.54939877	     75.70151018	     44.99121469	      0.00000000	      0.00000000	     39.54939877	    -14.84797222	     39.54939877	     75.70151018	     44.99121469	      0.00000000	      0.00000000
      1.17000000	      0.35272934	      0.28036251	      5.79446112	      0.75583316	      0.90503584	      0.23166833	     24.62639531	     -4.09506860	    -15.90299713	     12.50315311	      0.21822119	     -6.70673328	      1.35386518	      0.00000000	    -18.70062649	     -6.07921915	    -19.10945953	     20.70720835	      0.36140896	      0.35516361	     11.83247667	      0.00000000	     -1.60527159	      3.16275921	     -3.23688337	     39.55226358	    -14.84810406	     39.55226358	     75.70031879	     44.99125607	      0.00000000	      0.00000000	     39.55226358	    -14.84810406	     39.55226358	     75.70031879	     44.99125607	      0.00000000	      0.00000000
      1.17500000	      0.55253927	     -0.18822022	      5.29472820	      0.76356905	      0.90564450	      0.23355445	     24.57283763	     -3.57521726	    -15.86162206	     13.54722602	      0.23644370	     -6.79219127	      1.51536369	      0.00000000	    -18.81862989	     -6.69024517	    -19.57767207	     21.73644703	      0.37937257	     -1.08857984	     10.62192097	      0.00000000	     -1.70598304	      3.52467977	     -3.41207615	     39.55460556	    -14.84821180	     39.55460556	     75.69934587	     44.99128976	      0.00000000	      0.00000000	     39.55460556	    -14.84821180	     39.55460556	     75.69934587	     44.99128976	      0.00000000	      0.00000000
      1.18000000	      0.70566158	     -0.64229874	      4.82639071	      0.77138711	      0.90622058	      0.23530294	     24.58356864	     -3.04360986	    -15.82957471	     14.65234241	      0.25573162	     -6.68092199	      1.51357553	      0.00000000	    -18.80936167	     -7.32371333	    -20.13806554	     22.90518669	      0.39977092	     -2.65672450	      9.37033103	      0.00000000	     -1.74708096	      3.91297811	     -3.57610962	     39.55727807	    -14.84833471	     39.55727807	     75.69823674	     44.99132808	      0.00000000	      0.00000000	     39.55727807	    -14.84833471	     39.55727807	     75.69823674	     44.99132808	      0.00000000	      0.00000000
      1.18500000	      0.27958001	     -0.87068777	      3.82579253	      0.77905054	      0.90529619	      0.23868281	     25.52357409	     -2.41893709	    -14.86975112	     16.20850004	      0.28289169	     -6.24380394	      0.46064917	      0.00000000	    -18.02413739	     -7.83735188	    -21.65581552	     24.77260617	      0.43236354	     -3.85882720	      8.86104171	      0.00000000	     -1.02653240	      3.98580801	     -2.76741914	     39.58693620	    -14.84969624	     39.58693620	     75.68600664	     44.99174351	      0.00000000	      0.00000000	     39.58693620	    -14.84969624	     39.58693620	     75.68600664	     44.99174351	      0.00000000	      0.00000000
      1.19000000	      0.22146963	     -1.29650079	      2.83257443	      0.78652682	      0.90555221	      0.24193900	     25.54613614	     -1.19731920	    -12.94929242	     16.62699052	      0.29019573	     -6.41847804	     -1.64219427	      0.00000000	    -17.72740062	     -8.45531863	    -22.86222902	     26.27584923	      0.45860008	     -5.63507777	      7.64336792	      0.00000000	     -0.86717696	      4.33798243	     -2.17827054	     39.61197596	    -14.85084183	     39.61197596	     75.67580185	     44.99207980	      0.00000000	      0.00000000	     39.61197596	    -14.85084183	     39.61197596	     75.67580185	     44.99207980	      0.00000000	      0.00000000
      1.19500000	      0.12340055	     -1.78722506	      1.89265427	      0.79390087	      0.90576108	      0.24511100	     25.48739597	      0.16080610	    -10.88698646	     16.86221763	      0.29430122	     -6.53831921	     -3.62185911	      0.00000000	    -17.27934473	     -9.27252042	    -24.19344005	     28.04218084	      0.48942839	     -7.46250710	      6.53540586	      0.00000000	     -0.73340540	      4.77354766	     -1.73000508	     39.63157723	    -14.85173627	     39.63157723	     75.66788494	     44.99233473	      0.00000000	      0.00000000	     39.63157723	    -14.85173627	     39.63157723	     75.66788494	     44.99233473	      0.00000000	      0.00000000
